<?xml version="1.0" encoding="UTF-8" standalone="no"?>
<!-- Created with Inkscape (http://www.inkscape.org/) -->
<svg id="svg814" xmlns:rdf="http://www.w3.org/1999/02/22-rdf-syntax-ns#" xmlns="http://www.w3.org/2000/svg" height="16" width="16" version="1.1" xmlns:cc="http://creativecommons.org/ns#" xmlns:xlink="http://www.w3.org/1999/xlink" xmlns:dc="http://purl.org/dc/elements/1.1/">
 <defs id="defs816">
  <linearGradient id="linearGradient3977" y2="-273.35" gradientUnits="userSpaceOnUse" x2="-403.47" y1="-280.6" x1="-403.47">
   <stop id="stop3861" style="stop-color:#373e37" offset="0"/>
   <stop id="stop3863" style="stop-color:#1e1c1c" offset="1"/>
  </linearGradient>
  <linearGradient id="linearGradient18630" y2="199.27" gradientUnits="userSpaceOnUse" y1="201.99" gradientTransform="translate(-1569 841)" x2="1580.8" x1="1582.1">
   <stop id="stop3925" style="stop-color:#0e2949" offset="0"/>
   <stop id="stop3927" style="stop-color:#2569c1" offset="1"/>
  </linearGradient>
  <radialGradient id="radialGradient3939" gradientUnits="userSpaceOnUse" cy="8.6652" cx="9.3438" gradientTransform="matrix(.92617 -.37710 .67215 1.6509 -5.1345 -2.1956)" r="4.1094">
   <stop id="stop3935" style="stop-color:#fff" offset="0"/>
   <stop id="stop3937" style="stop-color:#fff;stop-opacity:0" offset="1"/>
  </radialGradient>
 </defs>
 <metadata id="metadata819">
  <rdf:RDF>
   <cc:Work rdf:about="">
    <dc:format>image/svg+xml</dc:format>
    <dc:type rdf:resource="http://purl.org/dc/dcmitype/StillImage"/>
    <dc:title/>
   </cc:Work>
  </rdf:RDF>
 </metadata>
 <g id="layer1" transform="translate(0 -1036.4)">
  <g id="layer1-9">
   <g id="g16853" style="enable-background:new" transform="translate(410.01 765)">
    <rect id="rect5025" ry="1.6106" style="opacity:.1;color:#000000;stroke:#fff;enable-background:accumulate;fill:none" rx="1.6106" transform="scale(1,-1)" height="11.023" width="11.042" y="-285.86" x="-409.51"/>
    <rect id="rect6506" style="color:#000000;stroke:#24282a;enable-background:accumulate;fill:url(#linearGradient3977)" transform="scale(1,-1)" rx="1.6106" ry="1.6106" height="11.023" width="11.042" y="-284.86" x="-409.51"/>
   </g>
  </g>
  <path id="path24115" d="m12.491 1038.6-5.9527 5.4952-1.5385-1.7075c-0.5675-0.6816-1.6986-0.074-2.1043 0.8424-0.3576 0.8077-0.263 2.1051 0.2918 2.7201l2.3824 2.5312c0.3844 0.4761 1.1988 0.5355 1.7814-0.031l6.9309-6.6701c0.8412-0.897 0.6398-2.2313 0.2214-2.8846-0.4925-0.769-1.4327-0.7826-2.0124-0.2955zm0.1111 0.9402 1.1079 1.4103-6.922 6.4375h-0.5937l-2.1875-2.1875 0.1563-1.4532 0.5312-0.2343 1.4687 1.2187 0.3438 0.3438 0.2002 0.25z" style="block-progression:tb;text-indent:0;color:#000000;text-transform:none;fill:url(#linearGradient18630)"/>
  <path id="path24119" d="m12.713 1039.4-6.2213 5.6908-1.675-1.7502c-0.2927-0.2624-0.7322 0.0002-0.8428 0.3317l0.028 1.5428 1.818 1.8656 7.9844-7.5312c-0.2564-0.4613-0.6632-0.4824-1.0915-0.1495z" style="block-progression:tb;text-indent:0;color:#000000;text-transform:none;fill:#92acd0"/>
  <path id="path24117" d="m13.804 1039.5-7.3077 6.8643-2.5348-2.7847s-0.5675 0.907 0.019 1.5866l2.1532 2.2536c0.1546 0.1768 0.4665 0.1222 0.6654-0.01l6.9002-6.4719c0.5082-0.5082 0.1094-1.4375 0.1094-1.4375h0.0002z" style="block-progression:tb;text-indent:0;color:#000000;text-transform:none;fill:#3465a4"/>
  <path id="path3929" style="opacity:.25514;stroke:url(#radialGradient3939);stroke-linecap:round;stroke-width:1px;fill:none" d="m6.4688 10.688 7.2192-6.7349" transform="translate(0 1036.4)"/>
 </g>
</svg>
