<?xml version="1.0" encoding="UTF-8" standalone="no"?>
<!-- Created with Inkscape (http://www.inkscape.org/) -->
<svg id="svg814" xmlns:rdf="http://www.w3.org/1999/02/22-rdf-syntax-ns#" xmlns="http://www.w3.org/2000/svg" height="16" width="16" version="1.1" xmlns:cc="http://creativecommons.org/ns#" xmlns:xlink="http://www.w3.org/1999/xlink" xmlns:dc="http://purl.org/dc/elements/1.1/">
 <defs id="defs816">
  <linearGradient id="linearGradient8358" y2="262.5" gradientUnits="userSpaceOnUse" x2="662.53" y1="249.29" x1="662.53">
   <stop id="stop11579-5-6-7-4" style="stop-color:#d3d7cf" offset="0"/>
   <stop id="stop11581-8-0-0-9" style="stop-color:#fff" offset="1"/>
  </linearGradient>
  <linearGradient id="linearGradient8360" y2="248.05" gradientUnits="userSpaceOnUse" x2="664.27" y1="261.45" x1="664.27">
   <stop id="stop12417-2-8-0" style="stop-color:#d3d7cf" offset="0"/>
   <stop id="stop12419-5-0-9" style="stop-color:#8f9985" offset="1"/>
  </linearGradient>
  <linearGradient id="linearGradient8362" y2="258.26" gradientUnits="userSpaceOnUse" x2="661.05" y1="251.69" x1="661.05">
   <stop id="stop11625-5-6-0" style="stop-color:#2e87e3" offset="0"/>
   <stop id="stop11627-4-4-9" style="stop-color:#76b0ec" offset="1"/>
  </linearGradient>
  <linearGradient id="linearGradient8364" y2="259.78" gradientUnits="userSpaceOnUse" x2="662.26" y1="251.67" x1="662.26">
   <stop id="stop12389-7-2" style="stop-color:#1b6fc5" offset="0"/>
   <stop id="stop12391-1-4" style="stop-color:#145393" offset="1"/>
  </linearGradient>
  <linearGradient id="linearGradient8366" y2="260.71" gradientUnits="userSpaceOnUse" x2="660.27" y1="246.7" x1="660.16">
   <stop id="stop11555-5-9-8" style="stop-color:#fff" offset="0"/>
   <stop id="stop11557-1-9-0" style="stop-color:#fff;stop-opacity:0" offset="1"/>
  </linearGradient>
  <radialGradient id="radialGradient8368" gradientUnits="userSpaceOnUse" cy="251.41" cx="660.87" gradientTransform="matrix(1.4686 0 0 2.2821 -309.65 -324.36)" r="5.0291">
   <stop id="stop12407-9" offset="0"/>
   <stop id="stop12409-7" style="stop-opacity:0" offset="1"/>
  </radialGradient>
  <radialGradient id="radialGradient5029" gradientUnits="userSpaceOnUse" cx="663.02" cy="269.83" r="2.3865" gradientTransform="matrix(2.4144 0 0 1.7214 -937.77 -194.09)">
   <stop id="stop12694-4-1" style="stop-color:#fff" offset="0"/>
   <stop id="stop12696-5-2" style="stop-color:#fff;stop-opacity:0" offset="1"/>
  </radialGradient>
 </defs>
 <metadata id="metadata819">
  <rdf:RDF>
   <cc:Work rdf:about="">
    <dc:format>image/svg+xml</dc:format>
    <dc:type rdf:resource="http://purl.org/dc/dcmitype/StillImage"/>
    <dc:title/>
   </cc:Work>
  </rdf:RDF>
 </metadata>
 <g id="layer1" transform="translate(0 -1036.4)">
  <g id="g6305" style="enable-background:new" transform="translate(-1031 770.36)">
   <path id="path6307" style="stroke-linejoin:round;stroke-width:.88216;color:#000000;stroke-dashoffset:100;stroke:url(#linearGradient8360);stroke-linecap:square;enable-background:new;fill:url(#linearGradient8358)" d="m665.48 255.07c0 4.0282-2.0182 7.2938-4.5078 7.2938s-4.5078-3.2655-4.5078-7.2938c0-4.0282 2.0182-7.2938 4.5078-7.2938s4.5078 3.2655 4.5078 7.2938z" transform="matrix(1.4419 0 0 .89117 85.921 46.692)"/>
   <path id="path6309" style="stroke-linejoin:round;stroke-width:1.2742;color:#000000;stroke-dashoffset:144.45;stroke:url(#linearGradient8364);stroke-linecap:square;enable-background:accumulate;fill:url(#linearGradient8362)" d="m665.48 255.07c0 4.0282-2.0182 7.2938-4.5078 7.2938s-4.5078-3.2655-4.5078-7.2938c0-4.0282 2.0182-7.2938 4.5078-7.2938s4.5078 3.2655 4.5078 7.2938z" transform="matrix(.99826 0 0 .61696 379.18 116.63)"/>
   <path id="path6311" style="opacity:.55466;stroke-linejoin:round;stroke-dashoffset:100;stroke:url(#linearGradient8366);stroke-linecap:square;stroke-width:1.6383;fill:none" d="m665.48 255.07c0 4.0282-2.0182 7.2938-4.5078 7.2938s-4.5078-3.2655-4.5078-7.2938c0-4.0282 2.0182-7.2938 4.5078-7.2938s4.5078 3.2655 4.5078 7.2938z" transform="matrix(.77641 0 0 -.47985 525.81 396.39)"/>
   <path id="path6313" style="opacity:.12955;stroke-linejoin:round;stroke-dashoffset:100;stroke:url(#radialGradient8368);stroke-linecap:square;stroke-width:1.0425;fill:none" d="m665.48 255.07c0 4.0282-2.0182 7.2938-4.5078 7.2938s-4.5078-3.2655-4.5078-7.2938c0-4.0282 2.0182-7.2938 4.5078-7.2938s4.5078 3.2655 4.5078 7.2938z" transform="matrix(1.2201 0 0 .75407 232.55 81.663)"/>
   <path id="path6315" style="opacity:.78543;color:#000000;enable-background:accumulate;fill:url(#radialGradient5029)" d="m665.48 271.75c0 0.9397-1.0685 1.7015-2.3865 1.7015s-2.3865-0.76178-2.3865-1.7015c0-0.9397 1.0685-1.7015 2.3865-1.7015s2.3865 0.76177 2.3865 1.7015z" transform="matrix(1.2571 0 0 1.1612 205.44 -43.522)"/>
  </g>
 </g>
</svg>
