<?xml version="1.0" encoding="UTF-8" standalone="no"?>
<!-- Created with Inkscape (http://www.inkscape.org/) -->
<svg id="svg814" xmlns:rdf="http://www.w3.org/1999/02/22-rdf-syntax-ns#" xmlns="http://www.w3.org/2000/svg" height="16" width="16" version="1.1" xmlns:cc="http://creativecommons.org/ns#" xmlns:xlink="http://www.w3.org/1999/xlink" xmlns:dc="http://purl.org/dc/elements/1.1/">
 <defs id="defs816">
  <linearGradient id="linearGradient8394" y2="197.99" gradientUnits="userSpaceOnUse" x2="1580.5" y1="201.99" x1="1582.1">
   <stop id="stop24135" style="stop-color:#145393" offset="0"/>
   <stop id="stop24137" style="stop-color:#1b6fc5" offset="1"/>
  </linearGradient>
  <linearGradient id="linearGradient3951" y2="-202.35" gradientUnits="userSpaceOnUse" y1="-186.45" gradientTransform="translate(-1610 -78.958)" x2="1205.6" x1="1205.6">
   <stop id="stop10356-2" style="stop-color:#bcbfb8" offset="0"/>
   <stop id="stop10358-2" style="stop-color:#fff" offset="1"/>
  </linearGradient>
  <linearGradient id="linearGradient3953" y2="248.98" gradientUnits="userSpaceOnUse" y1="233.78" gradientTransform="matrix(.84941 0 0 .84794 -623.98 -483.16)" x2="260.93" x1="260.93">
   <stop id="stop10334-5" style="stop-color:#d3d7cf" offset="0"/>
   <stop id="stop10336-29" style="stop-color:#8f9985" offset="1"/>
  </linearGradient>
 </defs>
 <metadata id="metadata819">
  <rdf:RDF>
   <cc:Work rdf:about="">
    <dc:format>image/svg+xml</dc:format>
    <dc:type rdf:resource="http://purl.org/dc/dcmitype/StillImage"/>
    <dc:title/>
   </cc:Work>
  </rdf:RDF>
 </metadata>
 <g id="layer1" transform="translate(0 -1036.4)">
  <g id="g16853" style="enable-background:new" transform="translate(410.01 765)">
   <rect id="rect6506" ry="1.6106" style="color:#000000;stroke:url(#linearGradient3953);enable-background:accumulate;fill:url(#linearGradient3951)" rx="1.6106" transform="scale(1,-1)" height="11.023" width="11.042" y="-284.86" x="-409.51"/>
  </g>
  <g id="g24757" style="enable-background:new" transform="translate(-1569 841)">
   <path id="path24115" d="m1581.5 197.57-5.9527 5.4952-1.5385-1.7076c-0.5675-0.68154-1.6986-0.0737-2.1043 0.84246-0.3576 0.80771-0.263 2.1051 0.2918 2.72l2.3824 2.5312c0.3844 0.47604 1.1988 0.53546 1.7814-0.0313l6.9309-6.6701c0.8412-0.89696 0.6398-2.2313 0.2214-2.8846-0.4925-0.76903-1.4327-0.78265-2.0124-0.29546zm0.1111 0.94016 1.1079 1.4103-6.922 6.4375h-0.5937l-2.1875-2.1875 0.1563-1.4531 0.5312-0.23438 1.4687 1.2188 0.3438 0.34375 0.2002 0.25z" style="block-progression:tb;text-indent:0;color:#000000;enable-background:accumulate;text-transform:none;fill:url(#linearGradient8394)"/>
   <path id="path24119" d="m1581.7 198.35-6.2213 5.6908-1.675-1.7502c-0.2927-0.26248-0.7322 0.00015-0.8428 0.33163l0.028 1.5429 1.818 1.8656 7.9844-7.5312c-0.2564-0.46127-0.6632-0.48234-1.0915-0.14946z" style="block-progression:tb;text-indent:0;color:#000000;enable-background:accumulate;text-transform:none;fill:#a2c0dd"/>
   <path id="path24117" d="m1582.8 198.5-7.3077 6.8643-2.5348-2.7847s-0.5675 0.90691 0.019 1.5866l2.1532 2.2536c0.1546 0.17678 0.4665 0.12213 0.6654-0.0104l6.9002-6.4719c0.5082-0.50823 0.1094-1.4375 0.1094-1.4375h0.0002z" style="block-progression:tb;text-indent:0;color:#000000;enable-background:accumulate;text-transform:none;fill:#4a8dd1"/>
  </g>
 </g>
</svg>
